<?xml version="1.0" encoding="UTF-8"?>
<svg width="140px" height="40px" viewBox="0 0 140 40" version="1.1" xmlns="http://www.w3.org/2000/svg" xmlns:xlink="http://www.w3.org/1999/xlink">
    <!-- Generator: sketchtool 49.2 (51160) - http://www.bohemiancoding.com/sketch -->
    <title>8BA3AD36-7B24-48B3-89D3-21D10E05B105</title>
    <desc>Created with sketchtool.</desc>
    <defs></defs>
    <g id="Page-1" stroke="none" stroke-width="1" fill="none" fill-rule="evenodd">
        <g id="FF-Bitcoin-Login" transform="translate(-650.000000, -192.000000)" fill="#000000" fill-rule="nonzero">
            <path d="M684.286,192 L650,192 L650,209.142 L690,209.142 L690,192 L684.286,192 Z M655.714,203.428 L655.714,197.714 L667.142,197.714 L667.142,203.428 L655.714,203.428 Z M684.286,203.428 L672.858,203.428 L672.858,197.714 L684.286,197.714 L684.286,203.428 Z M672.858,214.858 L690,214.858 L690,232 L650,232 L650,214.858 L672.858,214.858 Z M655.714,226.286 L667.142,226.286 L667.142,220.572 L655.714,220.572 L655.714,226.286 Z M684.286,226.286 L684.286,220.572 L672.858,220.572 L672.858,226.286 L684.286,226.286 Z M789.414,195.412 C789.038703,195.78878 788.5288,196.000578 787.997,196.000578 C787.4652,196.000578 786.955297,195.78878 786.58,195.412 C786.202234,195.0401 785.992727,194.53006 786,194 C785.992412,193.468691 786.204437,192.957805 786.586,192.588 C787.367,191.807236 788.633,191.807236 789.414,192.588 C789.795966,192.957531 790.008067,193.4686 790,194 C790.006166,194.531035 789.794365,195.041381 789.414,195.412 Z M786.78,192.778 C786.451414,193.098747 786.26978,193.540892 786.278,194 C786.269575,194.459926 786.450332,194.903143 786.778,195.226 C787.100443,195.550144 787.538792,195.73239 787.996,195.73239 C788.453208,195.73239 788.891557,195.550144 789.214,195.226 C789.543003,194.903886 789.724612,194.460355 789.716,194 C789.724068,193.542093 789.542372,193.101243 789.214,192.782 C788.891899,192.457977 788.453881,192.27578 787.997,192.27578 C787.540119,192.27578 787.102101,192.457977 786.78,192.782 L786.78,192.778 Z M787.958,192.89 C788.161222,192.879439 788.364644,192.906562 788.558,192.97 C788.781644,193.059958 788.919829,193.285932 788.898,193.526 C788.910692,193.698232 788.828705,193.863737 788.684,193.958 C788.586586,194.015554 788.478316,194.052325 788.366,194.066 C788.516787,194.080053 788.654361,194.157938 788.744,194.28 C788.816521,194.378945 788.857632,194.497402 788.862,194.62 L788.862,194.78 C788.862,194.832 788.862,194.886 788.862,194.944 C788.861899,194.982881 788.868669,195.021475 788.882,195.058 L788.896,195.086 L788.532,195.086 L788.532,195.064 L788.532,195.038 L788.532,194.968 L788.532,194.8 C788.5603,194.608895 788.483962,194.417288 788.332,194.298 C788.196024,194.241672 788.048821,194.217709 787.902,194.228 L787.596,194.228 L787.596,195.092 L787.208,195.092 L787.208,192.892 L787.958,192.89 Z M788.376,193.236 C788.228041,193.171822 788.06695,193.143717 787.906,193.154 L787.576,193.154 L787.576,193.954 L787.926,193.954 C788.051355,193.960149 788.176773,193.9432 788.296,193.904 C788.439755,193.853903 788.532281,193.713887 788.522,193.562 C788.54041,193.434252 788.483567,193.307329 788.376,193.236 Z M719.6,227.36 L717.64,227.36 C715.468887,227.391711 713.313333,226.98916 711.3,226.176 C709.48559,225.436619 707.837797,224.341038 706.454,222.954 C705.095189,221.568105 704.034122,219.918993 703.336,218.108 C702.585993,216.177855 702.209976,214.122663 702.228,212.052 C702.211746,209.975393 702.578545,207.913588 703.31,205.97 C703.991722,204.141968 705.043701,202.474462 706.4,201.072 C707.784812,199.668506 709.442128,198.563176 711.27,197.824 C713.310118,197.009254 715.491459,196.606838 717.688,196.64 L719.6,196.64 L719.6,192 L726.506,192 L726.506,196.64 L728.4,196.64 C730.596523,196.60705 732.777823,197.009458 734.818,197.824 C736.645872,198.563176 738.303188,199.668506 739.688,201.072 C741.045737,202.474093 742.099094,204.141626 742.782,205.97 C743.512484,207.913855 743.87925,209.975477 743.864,212.052 C743.881003,214.122574 743.505022,216.177577 742.756,218.108 C742.056429,219.918729 740.994779,221.567689 739.636,222.954 C738.246197,224.344986 736.589739,225.440901 734.766,226.176 C732.760309,226.98422 730.614246,227.386649 728.452,227.36 L726.492,227.36 L726.492,232 L719.6,232 L719.6,227.36 Z M719.754,221.742 L719.754,202.258 L717.682,202.258 C716.426826,202.232029 715.177912,202.441651 714,202.876 C713.013921,203.246281 712.124873,203.835789 711.4,204.6 C710.70442,205.35058 710.169487,206.23533 709.828,207.2 C709.461044,208.226621 709.27758,209.3098 709.286,210.4 L709.286,213.6 C709.277414,214.690213 709.460882,215.773422 709.828,216.8 C710.169026,217.764888 710.704013,218.649727 711.4,219.4 C712.124458,220.16566 713.013539,220.756557 714,221.128 C715.179169,221.562843 716.429486,221.772473 717.686,221.746 L719.754,221.742 Z M728.414,221.742 C729.661699,221.763826 730.902642,221.55429 732.074,221.124 C733.066663,220.756389 733.962144,220.166699 734.692,219.4 C735.387987,218.649727 735.922974,217.764888 736.264,216.8 C736.629076,215.773054 736.810511,214.689857 736.8,213.6 L736.8,210.4 C736.80842,209.3098 736.624956,208.226621 736.258,207.2 C735.916513,206.23533 735.38158,205.35058 734.686,204.6 C733.953693,203.830582 733.054634,203.23942 732.058,202.872 C730.887014,202.443316 729.646778,202.235141 728.4,202.258 L726.342,202.258 L726.342,221.742 L728.414,221.742 Z M765.722,227.36 L763.762,227.36 C761.590887,227.391711 759.435333,226.98916 757.422,226.176 C755.608176,225.436625 753.961037,224.341027 752.578,222.954 C751.219221,221.567689 750.157571,219.918729 749.458,218.108 C748.708978,216.177577 748.332997,214.122574 748.35,212.052 C748.33443,209.975272 748.701907,207.913472 749.434,205.97 C750.115431,204.141359 751.168207,202.473668 752.526,201.072 C753.911983,199.668054 755.570699,198.562697 757.4,197.824 C759.440177,197.009458 761.621477,196.60705 763.818,196.64 L765.726,196.64 L765.726,192 L772.632,192 L772.632,196.64 L774.54,196.64 C776.736541,196.606838 778.917882,197.009254 780.958,197.824 C782.785872,198.563176 784.443188,199.668506 785.828,201.072 C787.185737,202.474093 788.239094,204.141626 788.922,205.97 C789.652091,207.913846 790.017533,209.975642 790,212.052 C790.017003,214.122574 789.641022,216.177577 788.892,218.108 C788.193122,219.91861 787.132148,221.567577 785.774,222.954 C784.383436,224.344996 782.726324,225.440894 780.902,226.176 C778.896354,226.984373 776.750259,227.386809 774.588,227.36 L772.628,227.36 L772.628,232 L765.722,232 L765.722,227.36 Z M765.876,221.742 L765.876,202.258 L763.814,202.258 C762.557486,202.231527 761.307169,202.441157 760.128,202.876 C759.141539,203.247443 758.252458,203.83834 757.528,204.604 C756.83242,205.35458 756.297487,206.23933 755.956,207.204 C755.589044,208.230621 755.40558,209.3138 755.414,210.404 L755.414,213.604 C755.405414,214.694213 755.588882,215.777422 755.956,216.804 C756.297026,217.768888 756.832013,218.653727 757.528,219.404 C758.252458,220.16966 759.141539,220.760557 760.128,221.132 C761.307169,221.566843 762.557486,221.776473 763.814,221.75 L765.876,221.742 Z M774.536,221.742 C775.783699,221.763826 777.024642,221.55429 778.196,221.124 C779.19225,220.757741 780.091276,220.167968 780.824,219.4 C781.521422,218.650088 782.057786,217.765223 782.4,216.8 C782.767118,215.773422 782.950586,214.690213 782.942,213.6 L782.942,210.4 C782.95042,209.3098 782.766956,208.226621 782.4,207.2 C782.058513,206.23533 781.52358,205.35058 780.828,204.6 C780.095276,203.832032 779.19625,203.242259 778.2,202.876 C777.028642,202.44571 775.787699,202.236174 774.54,202.258 L772.474,202.258 L772.474,221.742 L774.536,221.742 Z" id="FF_logo"></path>
        </g>
    </g>
</svg>