<?xml version="1.0" encoding="UTF-8"?>
<svg width="20px" height="20px" viewBox="0 0 20 20" version="1.1" xmlns="http://www.w3.org/2000/svg" xmlns:xlink="http://www.w3.org/1999/xlink">
    <!-- Generator: Sketch 49.2 (51160) - http://www.bohemiancoding.com/sketch -->
    <title>RUB_icon</title>
    <desc>Created with Sketch.</desc>
    <defs></defs>
    <g id="Page-1" stroke="none" stroke-width="1" fill="none" fill-rule="evenodd">
        <g id="FF-Home" transform="translate(-562.000000, -696.000000)" fill="#000000">
            <path d="M572,716 C566.477153,716 562,711.522847 562,706 C562,700.477153 566.477153,696 572,696 C577.522847,696 582,700.477153 582,706 C582,711.522847 577.522847,716 572,716 Z M567,705.133895 L567,707.092539 L568.469979,707.092539 L568.469979,709.193687 L567,709.193687 L567,711.069118 L568.469979,711.069118 L568.469979,713.5 L570.626294,713.5 L570.626294,711.069118 L573.959627,711.069118 L573.959627,709.193687 L570.626294,709.193687 L570.626294,707.092539 L572.717391,707.092539 C573.393723,707.092539 574.021736,707.009327 574.601449,706.842898 C575.181162,706.67647 575.684953,706.423364 576.112836,706.083572 C576.54072,705.743781 576.878881,705.317315 577.127329,704.804161 C577.375778,704.291007 577.5,703.687713 577.5,702.994261 C577.5,702.30081 577.382679,701.70445 577.148033,701.205165 C576.913387,700.70588 576.589029,700.293282 576.174948,699.96736 C575.760867,699.641438 575.263978,699.398733 574.684265,699.23924 C574.104552,699.079746 573.462736,699 572.758799,699 L568.469979,699 L568.469979,705.133895 L567,705.133895 Z M572.845029,705.133615 L570.626294,705.133615 L570.626294,700.958644 L572.845029,700.958644 C573.612623,700.958644 574.216121,701.120723 574.655541,701.444886 C575.094961,701.769048 575.314668,702.288819 575.314668,703.004212 C575.314668,703.719605 575.094961,704.253348 574.655541,704.605456 C574.216121,704.957563 573.612623,705.133615 572.845029,705.133615 Z" id="RUB_icon"></path>
        </g>
    </g>
</svg>