<?xml version="1.0" encoding="UTF-8"?>
<svg width="20px" height="20px" viewBox="0 0 20 20" version="1.1" xmlns="http://www.w3.org/2000/svg" xmlns:xlink="http://www.w3.org/1999/xlink">
    <!-- Generator: Sketch 49.2 (51160) - http://www.bohemiancoding.com/sketch -->
    <title>USD_icon</title>
    <desc>Created with Sketch.</desc>
    <defs></defs>
    <g id="Page-1" stroke="none" stroke-width="1" fill="none" fill-rule="evenodd">
        <g id="FF-Home" transform="translate(-349.000000, -696.000000)" fill="#000000">
            <path d="M359,716 C353.477153,716 349,711.522847 349,706 C349,700.477153 353.477153,696 359,696 C364.522847,696 369,700.477153 369,706 C369,711.522847 364.522847,716 359,716 Z M360.021284,713.5 L360.021284,711.847945 C360.928869,711.782191 361.713479,711.557536 362.375138,711.173973 C363.458385,710.549312 364,709.546582 364,708.165753 C364,707.119173 363.604767,706.308222 362.81429,705.732877 C362.334148,705.38767 361.3973,704.990413 360.003718,704.541096 L360.003718,701.409589 C360.589256,701.447945 360.993272,701.661642 361.215777,702.050685 C361.344595,702.275344 361.432425,702.631504 361.479268,703.119178 L363.789207,703.119178 C363.754075,701.804103 363.241736,700.853428 362.252175,700.267123 C361.707624,699.899998 360.958146,699.680822 360.003718,699.609589 L360.003718,698.5 L358.058218,698.5 L358.058218,699.593151 C357.460968,699.636987 357.007183,699.705479 356.696847,699.79863 C356.187428,699.946576 355.72486,700.215067 355.309127,700.60411 C354.987081,700.905481 354.736767,701.264381 354.558177,701.680822 C354.379588,702.097262 354.290295,702.560271 354.290295,703.069863 C354.290295,703.84247 354.520115,704.502737 354.979763,705.050685 C355.439411,705.598633 356.228413,706.026026 357.346792,706.332877 L358.058218,706.530137 L358.058218,710.039726 C357.390704,709.930136 356.942773,709.691783 356.714413,709.324658 C356.568028,709.08904 356.45385,708.626031 356.371875,707.935616 L354.000454,707.935616 C353.982888,709.453432 354.474733,710.527394 355.476005,711.157534 C356.043977,711.508221 356.904706,711.743835 358.058218,711.864384 L358.058218,713.5 L360.021284,713.5 Z M360.003718,710.015068 L360.003718,706.80137 C360.49557,706.971234 360.843961,707.135616 361.048899,707.294521 C361.394367,707.568495 361.567098,707.941094 361.567098,708.412329 C361.567098,709.03151 361.382656,709.467122 361.013767,709.719178 C360.802973,709.861645 360.466293,709.960274 360.003718,710.015068 Z M358.058218,701.426027 L358.058218,704.310959 C357.630775,704.184931 357.314588,704.047946 357.10965,703.9 C356.74076,703.631506 356.556318,703.267126 356.556318,702.806849 C356.556318,702.384929 356.67928,702.052056 356.925206,701.808219 C357.171132,701.564382 357.548799,701.436986 358.058218,701.426027 Z" id="USD_icon"></path>
        </g>
    </g>
</svg>