<svg width="16px" height="16px" viewBox="0 0 32 32" version="1.1" xmlns="http://www.w3.org/2000/svg" xmlns:xlink="http://www.w3.org/1999/xlink">
    <g stroke-width="1" fill-rule="evenodd">
        <g transform="translate(3, 3)">
            <path d="M20.57,0 L0,0 L0,10.2866667 L24,10.2866667 L24,0 L20.57,0 Z M3.43,6.85666667 L3.43,3.43 L10.2866667,3.43 L10.2866667,6.85666667 L3.43,6.85666667 Z M20.57,6.85666667 L13.7133333,6.85666667 L13.7133333,3.43 L20.57,3.43 L20.57,6.85666667 Z" fill-rule="nonzero"></path>
            <path d="M13.7133333,13.7133333 L0,13.7133333 L0,24 L24,24 L24,13.7133333 L13.7133333,13.7133333 Z M3.43,20.57 L3.43,17.1433333 L10.2866667,17.1433333 L10.2866667,20.57 L3.43,20.57 Z M20.57,20.57 L13.7133333,20.57 L13.7133333,17.1433333 L20.57,17.1433333 L20.57,20.57 Z" fill-rule="nonzero"></path>
        </g>
    </g>
</svg>