<?xml version="1.0" encoding="utf-8"?>
<!-- Generator: Adobe Illustrator 22.1.0, SVG Export Plug-In . SVG Version: 6.00 Build 0)  -->
<svg version="1.1" id="Layer_1" xmlns="http://www.w3.org/2000/svg" xmlns:xlink="http://www.w3.org/1999/xlink" x="0px" y="0px"
	 viewBox="0 0 24 24" style="enable-background:new 0 0 24 24;" xml:space="preserve">
<title>Twitter</title>
<desc>Created with Sketch.</desc>
<g id="Twitter">
	<path d="M21.6,7.5c0,6.5-5,14.1-14,14.1c-2.8,0-5.4-0.8-7.5-2.2c0.4,0,0.8,0.1,1.2,0.1c2.3,0,4.4-0.8,6.1-2.1c-2.2,0-4-1.5-4.6-3.4
		C3,13.9,3.3,14,3.6,14c0.4,0,0.9-0.1,1.3-0.2C2.7,13.3,1,11.3,1,8.9V8.9c0.7,0.4,1.4,0.6,2.2,0.6C1.9,8.6,1,7.1,1,5.4
		c0-0.9,0.2-1.8,0.7-2.5c2.4,3,6.1,5,10.1,5.2c-0.1-0.4-0.1-0.7-0.1-1.1c0-2.7,2.2-4.9,4.9-4.9c1.4,0,2.7,0.6,3.6,1.6
		c1.1-0.2,2.2-0.6,3.1-1.2c-0.4,1.2-1.1,2.1-2.2,2.7c1-0.1,1.9-0.4,2.8-0.8c-0.7,1-1.5,1.9-2.5,2.6C21.6,7.1,21.6,7.3,21.6,7.5z"/>
</g>
</svg>
