<?xml version="1.0" encoding="utf-8"?>
<!-- Generator: Adobe Illustrator 22.1.0, SVG Export Plug-In . SVG Version: 6.00 Build 0)  -->
<svg version="1.1" id="Layer_1" xmlns="http://www.w3.org/2000/svg" xmlns:xlink="http://www.w3.org/1999/xlink" x="0px" y="0px"
	 viewBox="0 0 24 24" style="enable-background:new 0 0 24 24;" xml:space="preserve">
<title>VK</title>
<desc>Created with Sketch.</desc>
<g id="VK">
	<path id="Shape" d="M11.7,18.6h1.4c0,0,0.4,0,0.7-0.3c0.2-0.2,0.2-0.6,0.2-0.6s0-1.9,0.9-2.2c0.9-0.3,2,1.9,3.2,2.7
		c0.9,0.6,1.6,0.5,1.6,0.5l3.2,0c0,0,1.7-0.1,0.9-1.4c-0.1-0.1-0.5-1-2.4-2.8c-2-1.9-1.7-1.6,0.7-4.8c1.5-2,2.1-3.2,1.9-3.7
		c-0.2-0.5-1.3-0.4-1.3-0.4l-3.6,0c0,0-0.3,0-0.5,0.1c-0.2,0.1-0.3,0.4-0.3,0.4S17.7,7.6,17,8.9c-1.6,2.7-2.2,2.9-2.5,2.7
		C13.9,11.2,14,10,14,9.2c0-2.6,0.4-3.7-0.8-4C12.8,5.1,12.5,5,11.5,5c-1.3,0-2.4,0-3,0.3C8.1,5.5,7.8,6,8,6c0.2,0,0.8,0.1,1.1,0.5
		C9.4,7,9.4,8.2,9.4,8.2s0.2,3.1-0.5,3.5c-0.5,0.3-1.2-0.3-2.6-2.8C5.6,7.6,5.1,6.2,5.1,6.2S5,6,4.8,5.8C4.5,5.7,4.2,5.6,4.2,5.6
		l-3.4,0c0,0-0.5,0-0.7,0.2c-0.2,0.2,0,0.6,0,0.6s2.7,6.3,5.7,9.4C8.6,18.8,11.7,18.6,11.7,18.6z"/>
</g>
</svg>
